<svg width="601" height="544" viewBox="0 0 601 544" fill="none" xmlns="http://www.w3.org/2000/svg">
<path d="M41 517H55.5V542.5H1V517H15V19H41V103.5H51.5V146.5H78.5L86 138L94 144L84 157H41V430H475C487 430 506 449.5 506 459V516.5H520V542.5H465.5V516.5H480V466.5C477.529 460.302 474.865 458.041 468 456H41V517Z" fill="white"/>
<path d="M69.5 419C48.578 418.871 53.6924 381.883 69.5 382C85.3076 382.117 280 382 287.5 382C295 382 296 419 287.5 419C279 419 90.422 419.129 69.5 419Z" fill="white"/>
<path d="M309 419C296 419 297.5 382 309 382C320.5 382 438.034 382.255 457.5 382C476.966 381.745 479.339 419.27 457.5 419C435.661 418.73 322 419 309 419Z" fill="white"/>
<path d="M153.5 374.5H84C59.4882 351.413 60.2817 342.824 60 327C60 327 60 267 119 267C178 267 178 327 178 327C175.554 347.177 173.192 358.261 153.5 374.5Z" fill="white"/>
<path d="M189.5 318.5C191 303 209.5 294 209.5 294L210.5 339.5C217.206 349.857 221.288 353.799 229.5 355.5C234.906 356.408 237.672 356.58 243 355.5C253.415 351.22 257.941 347.417 262.5 337V294C262.5 294 522 307 529 307.5C536 308 552.5 314 556 329C559.5 344 600 505.5 600 505.5V516.5C587.5 550.5 561.887 549.68 540.5 528.5C521.269 468.625 512.054 434.315 499 371.5C466.563 372.04 449.174 371.19 420 367L414 374.5H306L297.5 382L291.5 374.5C291.5 374.5 228.5 373.5 212 373.5C195.5 373.5 189.5 339.5 189.5 339.5C187.731 331.302 188 334 189.5 318.5Z" fill="white"/>
<path d="M255.5 337C245.5 355.5 225 353.5 216.5 337L215.5 187C215.5 187 226 190 236 190C246 190 257 187 257 187V334L255.5 337Z" fill="white"/>
<path fill-rule="evenodd" clip-rule="evenodd" d="M236 70C236 70 214.5 70 214.5 91.5C214.5 113 236 113 236 113C236 113 258 113 258 91.5C258 70 236 70 236 70Z" fill="white"/>
<path fill-rule="evenodd" clip-rule="evenodd" d="M236 1C236 1 146 1.5 146 91.5C146 181.5 236 181.5 236 181.5C236 181.5 326.5 182 326.5 91.5C326.5 1 236 1 236 1ZM194 91.5C194 49 236 49 236 49C236 49 279 49 279 91.5C279 134 236 134 236 134C236 134 194 134 194 91.5Z" fill="white"/>
<path d="M41 456V517H55.5V542.5H1V517H15V19H41V103.5M41 456V430M41 456H468C474.865 458.041 477.529 460.302 480 466.5V516.5H465.5V542.5H520V516.5H506M506 516.5C506 516.5 506 468.5 506 459M506 516.5V459M41 430C41 430 463 430 475 430M41 430V157M41 430H475M475 430C487 430 506 449.5 506 459M41 103.5H51.5V146.5H78.5L86 138L94 144L84 157H41M41 103.5V157M69.5 382C53.6924 381.883 48.578 418.871 69.5 419C90.422 419.129 279 419 287.5 419C296 419 295 382 287.5 382C280 382 85.3076 382.117 69.5 382ZM309 382C297.5 382 296 419 309 419C322 419 435.661 418.73 457.5 419C479.339 419.27 476.966 381.745 457.5 382C438.034 382.255 320.5 382 309 382ZM236 70C236 70 214.5 70 214.5 91.5C214.5 113 236 113 236 113C236 113 258 113 258 91.5C258 70 236 70 236 70ZM236 1C236 1 146 1.5 146 91.5C146 181.5 236 181.5 236 181.5C236 181.5 326.5 182 326.5 91.5C326.5 1 236 1 236 1ZM84 374.5H153.5C173.192 358.261 175.554 347.177 178 327C178 327 178 267 119 267C60 267 60 327 60 327C60.2817 342.824 59.4882 351.413 84 374.5ZM209.5 294C209.5 294 191 303 189.5 318.5C188 334 187.731 331.302 189.5 339.5C189.5 339.5 195.5 373.5 212 373.5C228.5 373.5 291.5 374.5 291.5 374.5L297.5 382L306 374.5H414L420 367C449.174 371.19 466.563 372.04 499 371.5C512.054 434.315 521.269 468.625 540.5 528.5C561.887 549.68 587.5 550.5 600 516.5V505.5C600 505.5 559.5 344 556 329C552.5 314 536 308 529 307.5C522 307 262.5 294 262.5 294V337C257.941 347.417 253.415 351.22 243 355.5C237.672 356.58 234.906 356.408 229.5 355.5C221.288 353.799 217.206 349.857 210.5 339.5L209.5 294ZM216.5 337C225 353.5 245.5 355.5 255.5 337L257 334V187C257 187 246 190 236 190C226 190 215.5 187 215.5 187L216.5 337ZM236 49C236 49 194 49 194 91.5C194 134 236 134 236 134C236 134 279 134 279 91.5C279 49 236 49 236 49Z" stroke="white"/>
</svg>
