<svg width="604" height="603" viewBox="0 0 604 603" fill="none" xmlns="http://www.w3.org/2000/svg">
<path d="M284.003 53.5C283.726 82.9082 307.594 107 337.003 107C366.413 107 390.281 82.9082 390.003 53.5C389.728 24.3679 366.137 0.999999 337.003 1C307.87 1 284.278 24.3679 284.003 53.5Z" fill="white"/>
<path fill-rule="evenodd" clip-rule="evenodd" d="M123.5 355.5C55.569 355.713 0.862469 411.069 1.00026 479C1.13777 546.793 55.7117 601.256 123.501 602C187.331 602.7 247 541 247.5 495.5C247.5 495.5 265.5 495.5 289 495C289 495 318.501 489 318.5 466.5C318.5 444 318.5 312 318.5 312C317.989 302.456 314.466 298.675 307 292.5L246.5 255.5L287 192.5L332 224L346.5 230.5H389.5L400 265.5H330.5L352 301.5H390.5L354.5 359.5V426.5L417 327.5L428 366C398.501 374.57 354.855 427.244 355.5 480C356.328 547.65 410.845 601.724 478.5 602C546.296 602.276 601.538 548.29 602.5 480.5C603.477 411.747 538.501 350 478.5 355.5H477L463 357L428 230.5C428 230.5 455 224 455.5 196C456.001 168 428 161.5 428 161.5H364.5L292 109.5C279.737 101.475 273.212 102.153 262 109.5C255.644 114.573 252.287 117.489 248.5 123.5L162 255.5C158.292 266.159 159.228 271.919 164 282C168.716 289.589 172.405 292.799 180 297.5L248 338.5V459.5H245.5C237.553 423.404 227.654 405.954 199 380.5L211 358L181.5 339.5L167.5 363.5C167.5 363.5 140.965 355.445 123.5 355.5ZM36.5009 479C37.4365 430.27 76.2632 390.607 125.001 391C135.081 391.081 150.501 395 150.501 395C150.501 395 112.501 463.5 108.501 472C104.501 480.5 108.501 495.5 123.501 495.5H210.501C221.002 495.5 181.221 568.539 123.501 566.5C72.9881 564.716 35.5358 529.271 36.5009 479ZM181.5 412.5L155.5 459.5H209.5C205.112 438.586 197.687 428.802 181.5 412.5ZM438.5 401C438.375 401.066 438.25 401.131 438.126 401.197C438.258 401.672 438.43 402.265 438.65 403C440.582 409.455 460.621 476.363 463 483.5C465.5 491 474.659 496.592 483.5 494.5C491.899 492.513 498.5 482 497 477C495.5 472 473 391.5 473 391.5C473 391.5 492.319 391.111 504 394.5C525.605 400.769 537.716 409.989 550.5 428.5C562.435 445.782 566.376 459 566 480C565.139 528.042 526.549 566.748 478.5 566.5C461.972 566.415 452.047 563.846 437.5 556C407.259 539.689 392.374 515.348 391.5 481C390.582 444.918 406.287 418.039 438.126 401.197C437.1 397.501 438.5 401 438.5 401Z" fill="white"/>
<path d="M210.501 495.5C221.002 495.5 181.221 568.539 123.501 566.5C72.9881 564.716 35.5358 529.271 36.5009 479C37.4365 430.27 76.2632 390.607 125.001 391C135.081 391.081 150.501 395 150.501 395C150.501 395 112.501 463.5 108.501 472C104.501 480.5 108.501 495.5 123.501 495.5M210.501 495.5C200 495.5 138.501 495.5 123.501 495.5M210.501 495.5H123.501M438.126 401.197C438.25 401.131 438.375 401.066 438.5 401C438.5 401 437.1 397.501 438.126 401.197ZM438.126 401.197C438.258 401.672 438.43 402.265 438.65 403C440.582 409.455 460.621 476.363 463 483.5C465.5 491 474.659 496.592 483.5 494.5C491.899 492.513 498.5 482 497 477C495.5 472 473 391.5 473 391.5C473 391.5 492.319 391.111 504 394.5C525.605 400.769 537.716 409.989 550.5 428.5C562.435 445.782 566.376 459 566 480C565.139 528.042 526.549 566.748 478.5 566.5C461.972 566.415 452.047 563.846 437.5 556C407.259 539.689 392.374 515.348 391.5 481C390.582 444.918 406.287 418.039 438.126 401.197ZM337.003 107C307.594 107 283.726 82.9082 284.003 53.5C284.278 24.3679 307.87 1 337.003 1C366.137 0.999999 389.728 24.3679 390.003 53.5C390.281 82.9082 366.413 107 337.003 107ZM155.5 459.5L181.5 412.5C197.687 428.802 205.112 438.586 209.5 459.5H155.5ZM123.5 355.5C55.569 355.713 0.862469 411.069 1.00026 479C1.13777 546.793 55.7117 601.256 123.501 602C187.331 602.7 247 541 247.5 495.5C247.5 495.5 265.5 495.5 289 495C289 495 318.501 489 318.5 466.5C318.5 444 318.5 312 318.5 312C317.989 302.456 314.466 298.675 307 292.5L246.5 255.5L287 192.5L332 224L346.5 230.5H389.5L400 265.5H330.5L352 301.5H390.5L354.5 359.5V426.5L417 327.5L428 366C398.501 374.57 354.855 427.244 355.5 480C356.328 547.65 410.845 601.724 478.5 602C546.296 602.276 601.538 548.29 602.5 480.5C603.477 411.747 538.501 350 478.5 355.5H477L463 357L428 230.5C428 230.5 455 224 455.5 196C456.001 168 428 161.5 428 161.5H364.5L292 109.5C279.737 101.475 273.212 102.153 262 109.5C255.644 114.573 252.287 117.489 248.5 123.5L162 255.5C158.292 266.159 159.228 271.919 164 282C168.716 289.589 172.405 292.799 180 297.5L248 338.5V459.5H245.5C237.553 423.404 227.654 405.954 199 380.5L211 358L181.5 339.5L167.5 363.5C167.5 363.5 140.965 355.445 123.5 355.5Z" stroke="white"/>
</svg>
