<svg width="418" height="611" viewBox="0 0 418 611" fill="none" xmlns="http://www.w3.org/2000/svg">
<path d="M143.006 61.3151C143.006 61.3151 145.782 118.059 202.888 118.059C259.993 118.059 259.993 61.3151 259.993 61.3151C259.993 61.3151 259.993 1 202.888 1C145.782 1 143.006 61.3151 143.006 61.3151Z" fill="white"/>
<path d="M139.435 297.417L121.59 224.007C114.6 237.19 108.876 243.027 95.4161 250.99C95.4161 250.99 88.2778 257.339 69.6391 253.371C51.0004 249.403 44.2588 231.943 44.2588 231.943C39.9974 219.196 39.3468 208.705 39.8965 186.707L49.8107 151.403C49.8107 151.403 41.8794 147.82 39.8965 147.82C37.9137 147.82 37.1206 149.804 37.1206 149.804C37.1206 149.804 33.9539 166.866 30.3848 168.057C26.8157 169.247 20.4706 166.866 20.074 165.279C19.6774 163.692 22.4534 159.327 22.4534 159.327C22.4534 159.327 14.1255 159.327 13.7289 156.549C13.3323 153.772 16.1024 149.01 16.1024 149.01C16.1024 149.01 8.17695 147.82 7.78039 145.439C7.38382 143.058 12.1426 133.138 12.1426 133.138C14.1254 131.154 0.239634 130.757 1.03277 128.376L4.60197 120.043L16.1024 122.424C16.1024 122.424 14.9186 114.091 18.4819 111.71C22.0451 109.329 24.8269 113.297 24.8269 113.297C24.8269 113.297 25.2176 108.932 26.4132 105.758C27.6088 102.583 36.724 108.535 36.724 108.535C36.724 108.535 36.724 102.583 39.8965 101.393C43.0691 100.202 47.822 99.8056 49.8107 104.171C51.7994 108.535 42.6725 134.328 42.6725 134.328C42.6725 134.328 42.9864 135.854 43.4656 136.709C45.3974 140.155 49.434 138.551 53.3798 138.693C64.4597 139.092 65.6735 125.995 79.1568 126.789C92.6401 127.582 95.4161 149.804 95.4161 149.804L114.451 153.772L121.59 134.725C121.59 134.725 123.176 130.757 127.538 130.757C131.9 130.757 135.073 131.154 137.056 134.725C139.039 138.296 137.056 145.439 137.056 145.439C137.056 145.439 143.004 144.248 145.78 147.026C148.556 149.804 145.78 163.692 145.78 163.692H151.332V171.231H144.987C144.523 177.257 144.093 180.639 140.625 186.707C140.625 189.088 137.452 188.691 135.866 188.691C134.28 188.691 133.09 187.501 131.107 187.897C129.124 188.294 129.124 190.675 129.124 190.675C129.124 190.675 126.745 196.23 124.762 196.627C122.81 197.018 114.706 196.639 114.457 196.627C108.394 195.843 107.052 194.297 107.71 189.881C107.71 188.691 108.899 183.532 109.296 181.548C109.693 179.564 110.486 178.374 110.486 178.374C110.486 178.374 112.072 168.851 110.486 166.866C108.899 164.882 91.847 159.327 91.847 159.327L86.6916 184.326L88.2778 190.675L99.7783 171.231L100.968 193.453L112.865 203.373H125.952C125.952 203.373 152.131 197.818 157.677 188.691C163.223 179.564 157.677 159.327 157.677 159.327V148.216L153.321 143.852L149.349 141.471L145.78 138.693L140.625 134.725L138.642 128.376H268.716L263.561 133.138L258.802 140.28L252.457 145.439L247.698 158.137V169.644L251.664 178.771L258.802 187.897L264.354 194.643C264.354 194.643 271.889 197.421 273.079 197.818C274.268 198.214 276.648 201.389 278.631 202.183C280.613 202.976 295.286 202.183 295.286 202.183L298.459 197.818L303.614 194.643C303.614 194.643 303.218 172.819 303.614 171.231C304.011 169.644 308.373 170.041 309.563 171.231C310.753 172.422 310.753 178.771 311.942 181.152C313.132 183.532 314.718 183.532 315.511 185.517C316.305 187.501 314.718 189.088 315.511 189.881C316.305 190.675 318.684 191.469 319.874 190.675C321.063 189.881 320.667 178.771 319.874 176.787C319.081 174.803 316.701 171.231 316.701 171.231C316.701 171.231 314.322 166.073 314.322 164.882C314.322 163.692 315.511 163.295 314.322 162.502C313.132 161.708 301.632 161.708 300.838 162.502C300.045 163.295 300.838 164.882 300.045 164.882C299.252 164.882 296.476 163.692 295.286 164.882C294.097 166.073 294.89 168.454 295.286 171.231L295.689 172.819C295.689 172.819 301.637 185.517 299.655 191.865C297.672 198.214 286.964 199.802 283.792 197.818C280.619 195.834 278.631 187.897 278.631 187.897C278.631 187.897 276.257 192.659 270.705 190.675C267.767 189.625 266.606 186.019 266.458 183.386C264.374 183.715 261.187 183.136 261.187 183.136L258.411 175.199C258.411 175.199 261.186 172.562 263.207 171.392C262.267 168.565 261.519 163.722 261.981 162.105C262.774 159.327 269.119 158.93 269.119 158.93C269.119 158.93 265.55 152.581 265.946 147.82C266.343 143.058 274.671 138.693 274.671 138.693C278.923 135.516 283.792 133.138 285.378 134.328C286.964 135.518 289.734 145.439 289.734 145.439C292.595 152.91 288.899 152.281 289.734 152.581C297.115 155.233 309.563 149.407 309.563 149.407C309.563 149.407 307.58 133.138 325.029 128.376C342.478 123.614 351.203 138.693 351.203 138.693C351.203 138.693 363.893 139.487 365.082 136.709C366.272 133.931 360.324 128.376 360.324 128.376C360.324 128.376 358.341 121.233 358.737 119.249C359.134 117.265 357.184 116.472 362.306 113.694C367.429 110.916 374.567 110.123 377.74 110.916C380.912 111.71 382.499 110.123 386.068 113.694C389.637 117.265 389.637 125.598 389.637 125.598C389.637 125.598 396.775 120.043 402.724 122.424C408.672 124.805 405.5 131.55 405.5 131.55L414.224 129.17L417 138.693L407.879 141.867C407.879 141.867 411.845 147.423 410.655 151.391C409.465 155.359 395.982 155.359 395.982 155.359C395.982 155.359 402.327 164.882 399.551 169.644C396.775 174.406 400.344 169.644 395.982 174.406C391.62 179.168 381.705 177.977 377.74 175.993C373.774 174.009 369.841 166.47 369.841 166.47C369.048 164.882 369.048 154.169 366.669 152.581C364.289 150.994 359.53 148.216 358.737 151.391C357.944 154.565 363.893 186.707 363.893 186.707L360.324 227.975C360.324 227.975 358.737 248.212 329.391 251.387C300.045 254.561 282.596 224.007 282.596 224.007L266.734 297.417C266.734 297.417 311.149 548.201 313.925 562.486C316.701 576.771 311.942 587.882 311.942 587.882C311.942 587.882 307.184 609.706 279.424 609.706C251.664 609.706 247.302 592.247 247.302 592.247L202.489 350.986L158.867 583.12C158.867 583.12 145.78 613.277 116.831 609.706C87.8813 606.135 92.6401 573.993 92.6401 573.993L139.435 297.417Z" fill="white"/>
<path d="M110.486 145.439H100.968C103.605 136.723 117.624 130.757 116.831 132.344C116.038 133.931 110.486 145.439 110.486 145.439Z" fill="white"/>
<path d="M295.286 145.439L289.734 131.55C298.164 135.147 301.664 137.989 304.408 145.439H295.286Z" fill="white"/>
<path d="M114.451 196.627C114.451 196.627 114.453 196.627 114.457 196.627M114.457 196.627C114.706 196.639 122.81 197.018 124.762 196.627C126.745 196.23 129.124 190.675 129.124 190.675C129.124 190.675 129.124 188.294 131.107 187.897C133.09 187.501 134.28 188.691 135.866 188.691C137.452 188.691 140.625 189.088 140.625 186.707C144.093 180.639 144.523 177.257 144.987 171.231H151.332V163.692H145.78C145.78 163.692 148.556 149.804 145.78 147.026C143.004 144.248 137.056 145.439 137.056 145.439C137.056 145.439 139.039 138.296 137.056 134.725C135.073 131.154 131.9 130.757 127.538 130.757C123.176 130.757 121.59 134.725 121.59 134.725L114.451 153.772L95.4161 149.804C95.4161 149.804 92.6401 127.582 79.1568 126.789C65.6735 125.995 64.4597 139.092 53.3798 138.693C49.434 138.551 45.3974 140.155 43.4656 136.709C42.9864 135.854 42.6725 134.328 42.6725 134.328C42.6725 134.328 51.7995 108.535 49.8107 104.171C47.822 99.8056 43.0691 100.202 39.8965 101.393C36.724 102.583 36.724 108.535 36.724 108.535C36.724 108.535 27.6088 102.583 26.4132 105.758C25.2176 108.932 24.8269 113.297 24.8269 113.297C24.8269 113.297 22.0451 109.329 18.4819 111.71C14.9186 114.091 16.1024 122.424 16.1024 122.424L4.60197 120.043L1.03277 128.376C0.239634 130.757 14.1254 131.154 12.1426 133.138C12.1426 133.138 7.38382 143.058 7.78039 145.439C8.17695 147.82 16.1024 149.01 16.1024 149.01C16.1024 149.01 13.3323 153.772 13.7289 156.549C14.1255 159.327 22.4534 159.327 22.4534 159.327C22.4534 159.327 19.6774 163.692 20.074 165.279C20.4706 166.866 26.8157 169.247 30.3848 168.057C33.9539 166.866 37.1206 149.804 37.1206 149.804C37.1206 149.804 37.9137 147.82 39.8965 147.82C41.8794 147.82 49.8107 151.403 49.8107 151.403L39.8965 186.707C39.3468 208.705 39.9974 219.196 44.2588 231.943C44.2588 231.943 51.0004 249.403 69.6391 253.371C88.2778 257.339 95.4161 250.99 95.4161 250.99C108.876 243.027 114.6 237.19 121.59 224.007L139.435 297.417L92.6401 573.993C92.6401 573.993 87.8813 606.135 116.831 609.706C145.78 613.277 158.867 583.12 158.867 583.12L202.489 350.986L247.302 592.246C247.302 592.246 251.664 609.706 279.424 609.706C307.184 609.706 311.942 587.882 311.942 587.882C311.942 587.882 316.701 576.771 313.925 562.486C311.149 548.201 266.734 297.417 266.734 297.417L282.596 224.007C282.596 224.007 300.045 254.561 329.391 251.387C358.737 248.212 360.324 227.975 360.324 227.975L363.893 186.707C363.893 186.707 357.944 154.565 358.737 151.391C359.531 148.216 364.289 150.994 366.669 152.581C369.048 154.169 369.048 164.882 369.841 166.47C369.841 166.47 373.774 174.009 377.74 175.993C381.705 177.977 391.62 179.168 395.982 174.406C400.344 169.644 396.775 174.406 399.551 169.644C402.327 164.882 395.982 155.359 395.982 155.359C395.982 155.359 409.465 155.359 410.655 151.391C411.845 147.423 407.879 141.867 407.879 141.867C411.441 140.628 413.438 139.933 417 138.693L414.224 129.17L405.5 131.55C405.5 131.55 408.672 124.805 402.724 122.424C396.775 120.043 389.637 125.598 389.637 125.598C389.637 125.598 389.637 117.265 386.068 113.694C382.499 110.123 380.912 111.71 377.74 110.916C374.567 110.123 367.429 110.916 362.306 113.694C357.184 116.472 359.134 117.265 358.737 119.249C358.341 121.233 360.324 128.376 360.324 128.376C360.324 128.376 366.272 133.931 365.082 136.709C363.893 139.487 351.203 138.693 351.203 138.693C351.203 138.693 342.478 123.614 325.029 128.376C307.58 133.138 309.563 149.407 309.563 149.407C309.563 149.407 297.115 155.233 289.735 152.581C288.899 152.281 292.595 152.91 289.735 145.439C289.735 145.439 286.964 135.518 285.378 134.328C283.792 133.138 278.923 135.516 274.671 138.693C274.671 138.693 266.343 143.058 265.946 147.82C265.55 152.581 269.119 158.93 269.119 158.93C269.119 158.93 262.774 159.327 261.981 162.105C261.187 164.882 263.963 177.184 265.153 172.422C266.343 167.66 258.411 175.199 258.411 175.199L261.187 183.136C261.187 183.136 269.912 184.723 267.929 181.152C265.946 177.58 265.153 188.691 270.705 190.675C276.257 192.659 278.631 187.897 278.631 187.897C278.631 187.897 280.619 195.834 283.792 197.818C286.964 199.802 297.672 198.214 299.655 191.865C301.637 185.517 295.689 172.819 295.689 172.819L295.286 171.231C294.89 168.454 294.097 166.073 295.286 164.882C296.476 163.692 299.252 164.882 300.045 164.882C300.838 164.882 300.045 163.295 300.838 162.502C301.632 161.708 313.132 161.708 314.322 162.502C315.511 163.295 314.322 163.692 314.322 164.882C314.322 166.073 316.701 171.231 316.701 171.231C316.701 171.231 319.081 174.803 319.874 176.787C320.667 178.771 321.063 189.881 319.874 190.675C318.684 191.469 316.305 190.675 315.511 189.881C314.718 189.088 316.305 187.501 315.511 185.517C314.718 183.532 313.132 183.532 311.942 181.152C310.753 178.771 310.753 172.422 309.563 171.231C308.373 170.041 304.011 169.644 303.614 171.231C303.218 172.819 303.614 194.643 303.614 194.643L298.459 197.818L295.286 202.183C295.286 202.183 280.613 202.976 278.631 202.183C276.648 201.389 274.268 198.214 273.079 197.818C271.889 197.421 264.354 194.643 264.354 194.643L258.802 187.897L251.664 178.771L247.698 169.644V158.137L252.457 145.439L258.802 140.28L263.561 133.138L268.716 128.376H138.642L140.625 134.725L145.78 138.693L149.349 141.471L153.321 143.852L157.677 148.216V159.327C157.677 159.327 163.223 179.564 157.677 188.691C152.131 197.818 125.952 203.373 125.952 203.373H112.865L100.968 193.453L99.7783 171.231L88.2778 190.675L86.6916 184.326L91.847 159.327C91.847 159.327 108.899 164.882 110.486 166.866C112.072 168.851 110.486 178.374 110.486 178.374C110.486 178.374 109.693 179.564 109.296 181.548C108.899 183.532 107.71 188.691 107.71 189.881C107.052 194.297 108.394 195.843 114.457 196.627ZM202.888 118.059C145.782 118.059 143.006 61.3151 143.006 61.3151C143.006 61.3151 145.782 1 202.888 1C259.993 1 259.993 61.3151 259.993 61.3151C259.993 61.3151 259.993 118.059 202.888 118.059ZM100.968 145.439H110.486C110.486 145.439 116.038 133.931 116.831 132.344C117.624 130.757 103.605 136.723 100.968 145.439ZM289.735 131.55L295.286 145.439H304.408C301.664 137.989 298.164 135.147 289.735 131.55Z" stroke="white"/>
</svg>
