<svg width="242" height="254" viewBox="0 0 242 254" fill="none" xmlns="http://www.w3.org/2000/svg">
<path d="M124.5 72.5009C104.616 72.6418 88.5829 55.8807 89 36.0009C89.4084 16.5367 105.032 0.862834 124.5 1.00091C143.829 1.13799 159.095 16.6752 159.5 36.0009C159.914 55.7451 144.248 72.3609 124.5 72.5009Z" fill="white"/>
<path d="M15.5 230.001C15.5 230.001 10.1882 234.886 10 239.001C9.79636 243.453 12.2022 246.003 15.5 249.001C19.612 252.739 23.4433 253.577 29 253.501C33.694 253.437 36.0797 251.582 40.5 250.001C59.9891 243.031 69.2621 234.836 85.5 222.001C100.233 210.356 120 188.501 120 188.501H172C172 188.501 172 236 173 242.001C174 248.002 180.62 253.385 188 253.501C195.536 253.62 201 248.502 203.5 242.001C206 235.5 216.5 171 203.5 159.001C190.5 147.002 153 159.001 153 159.001V105.501H232.5C241 105.501 241.5 94.0009 241.5 94.0009C241.5 94.0009 242 80.5009 232.5 80.5009H12C2.5 80.5009 1 93.0009 1 93.0009C1 93.0009 2 105.501 12 105.501H96V176.501C96 176.501 74.3275 196.988 58.5 207.501C42.7127 217.987 15.5 230.001 15.5 230.001Z" fill="white"/>
<path d="M153 105.501V159.001C153 159.001 190.5 147.002 203.5 159.001C216.5 171 206 235.5 203.5 242.001C201 248.502 195.536 253.62 188 253.501C180.62 253.385 174 248.002 173 242.001C172 236 172 188.501 172 188.501H120C120 188.501 100.233 210.356 85.5 222.001C69.2621 234.836 59.9891 243.031 40.5 250.001C36.0797 251.582 33.694 253.437 29 253.501C23.4433 253.577 19.612 252.739 15.5 249.001C12.2022 246.003 9.79636 243.453 10 239.001C10.1882 234.886 15.5 230.001 15.5 230.001C15.5 230.001 42.7127 217.987 58.5 207.501C74.3275 196.988 96 176.501 96 176.501V105.501M153 105.501C153 105.501 224 105.501 232.5 105.501M153 105.501H232.5M232.5 105.501C241 105.501 241.5 94.0009 241.5 94.0009C241.5 94.0009 242 80.5009 232.5 80.5009M232.5 80.5009C223 80.5009 21.5 80.5009 12 80.5009M232.5 80.5009H12M12 80.5009C2.5 80.5009 1 93.0009 1 93.0009C1 93.0009 2 105.501 12 105.501M12 105.501C22 105.501 96 105.501 96 105.501M12 105.501H96M124.5 72.5009C104.616 72.6418 88.5829 55.8807 89 36.0009C89.4084 16.5367 105.032 0.862834 124.5 1.00091C143.829 1.13799 159.095 16.6752 159.5 36.0009C159.914 55.7451 144.248 72.3609 124.5 72.5009Z" stroke="white"/>
</svg>
