<svg width="602" height="180" viewBox="0 0 602 180" fill="none" xmlns="http://www.w3.org/2000/svg">
<path d="M3.50012 162C-4.99988 143.501 12.0001 127.5 12.0001 127.5L157.5 73.0004L207 17.5004C207 17.5004 216 6.00038 227 2.50038C238 -0.99962 280.5 2.50038 280.5 2.50038H463.5C475.5 2.50038 483 11.0004 483 22.0004V99.5004C483 99.5004 471 104.5 465 99.5004C459 94.5007 455.5 63.5004 455.5 63.5004V133H547.5C547.5 133 566.5 135.5 566.5 156C566.5 176.5 547.5 178.5 547.5 178.5H427.5C419 178.5 408 169 408 162V63.5004C408 63.5004 399 99.5004 372.5 99.5004C346 99.5004 235 94.0004 235 94.0004C235 94.0004 217 109.5 209 114.5C201 119.5 182 125 182 125L33.0001 178.5C33.0001 178.5 12.0001 180.5 3.50012 162Z" fill="white"/>
<path d="M601.5 52.0004C601.5 52.0004 601.5 99.5004 553 99.5004C504.5 99.5004 504.5 52.0004 504.5 52.0004C504.5 52.0004 504.5 3.50038 553 3.50038C601.5 3.50038 601.5 52.0004 601.5 52.0004Z" fill="white"/>
<path d="M3.50012 162C-4.99988 143.501 12.0001 127.5 12.0001 127.5L157.5 73.0004L207 17.5004C207 17.5004 216 6.00038 227 2.50038C238 -0.99962 280.5 2.50038 280.5 2.50038H463.5C475.5 2.50038 483 11.0004 483 22.0004V99.5004C483 99.5004 471 104.5 465 99.5004C459 94.5007 455.5 63.5004 455.5 63.5004V133H547.5C547.5 133 566.5 135.5 566.5 156C566.5 176.5 547.5 178.5 547.5 178.5H427.5C419 178.5 408 169 408 162V63.5004C408 63.5004 399 99.5004 372.5 99.5004C346 99.5004 235 94.0004 235 94.0004C235 94.0004 217 109.5 209 114.5C201 119.5 182 125 182 125L33.0001 178.5C33.0001 178.5 12.0001 180.5 3.50012 162Z" stroke="white"/>
<path d="M601.5 52.0004C601.5 52.0004 601.5 99.5004 553 99.5004C504.5 99.5004 504.5 52.0004 504.5 52.0004C504.5 52.0004 504.5 3.50038 553 3.50038C601.5 3.50038 601.5 52.0004 601.5 52.0004Z" stroke="white"/>
</svg>
