<svg width="482" height="497" viewBox="0 0 482 497" fill="none" xmlns="http://www.w3.org/2000/svg">
<path d="M24.5 41H6L0.5 46V63L6 68H24.5V41Z" fill="white"/>
<path d="M410 68V41H57V68H111.5H136H321H346.5H410Z" fill="white"/>
<path d="M442.5 68V41H410V68H442.5Z" fill="white"/>
<path d="M416 1C413 1 410 4 410 7V41H442.5V6C442.5 3 439.5 1 436.5 1H416Z" fill="white"/>
<path d="M476 68L481 63V46L476 41H442.5V68H476Z" fill="white"/>
<path d="M436.5 496C438.5 496 442.5 493 442.5 490V68H410V490C410 493 413 496 416 496H436.5Z" fill="white"/>
<path d="M111.5 68C110.428 103.48 121 156 124 160.5C127 165 157.077 190.733 185.5 200.5C185.5 200.5 191.5 422.5 191.5 433.5C191.5 444.5 198.5 456.5 212.5 456.5C226.5 456.5 233.5 448 233.5 448L231 418.5L229 389L233.5 300.5C233.5 300.5 238.5 380 238.5 389C238.5 398 233.5 448 233.5 448C239.986 454.435 244.889 455.852 254 456.5C269.675 454.369 268.257 449.591 273.5 433.5L281.5 200.5C309.226 190.904 338 172 341.5 167C345 162 346.5 102 346.5 68H321C316.104 89.199 297.835 137.878 306 135.5C314.165 133.122 284.92 139.844 269 156H261C264.601 149.667 271.725 141.807 273.5 134C274.728 121.409 273.398 114.785 266.5 104C254.227 91.6624 246.9 89.2868 233.5 88.5C219.955 89.9518 213.939 91.9575 206.5 99C197.02 108.236 195.148 114.769 193.5 127.5C193.851 138.474 200.127 147.768 205.5 156H196C185.468 146.561 160.943 134.915 160 135.5C159.057 136.085 138.44 67.0631 136 68H111.5Z" fill="white"/>
<path d="M24.5 41H6L0.5 46V63L6 68H24.5V41Z" fill="white"/>
<path d="M410 68V41H57V68H111.5H136H321H346.5H410Z" fill="white"/>
<path d="M442.5 68V41H410V68H442.5Z" fill="white"/>
<path d="M416 1C413 1 410 4 410 7V41H442.5V6C442.5 3 439.5 1 436.5 1H416Z" fill="white"/>
<path d="M476 68L481 63V46L476 41H442.5V68H476Z" fill="white"/>
<path d="M436.5 496C438.5 496 442.5 493 442.5 490V68H410V490C410 493 413 496 416 496H436.5Z" fill="white"/>
<path d="M111.5 68C110.428 103.48 121 156 124 160.5C127 165 157.077 190.733 185.5 200.5C185.5 200.5 191.5 422.5 191.5 433.5C191.5 444.5 198.5 456.5 212.5 456.5C226.5 456.5 233.5 448 233.5 448L231 418.5L229 389L233.5 300.5C233.5 300.5 238.5 380 238.5 389C238.5 398 233.5 448 233.5 448C239.986 454.435 244.889 455.852 254 456.5C269.675 454.369 268.257 449.591 273.5 433.5L281.5 200.5C309.226 190.904 338 172 341.5 167C345 162 346.5 102 346.5 68H321C316.104 89.199 297.835 137.878 306 135.5C314.165 133.122 284.92 139.844 269 156H261C264.601 149.667 271.725 141.807 273.5 134C274.728 121.409 273.398 114.785 266.5 104C254.227 91.6624 246.9 89.2868 233.5 88.5C219.955 89.9518 213.939 91.9575 206.5 99C197.02 108.236 195.148 114.769 193.5 127.5C193.851 138.474 200.127 147.768 205.5 156H196C185.468 146.561 160.943 134.915 160 135.5C159.057 136.085 138.44 67.0631 136 68H111.5Z" fill="white"/>
<path d="M416 1C413 1 410 4 410 7V41H442.5V6C442.5 3 439.5 1 436.5 1H416Z" fill="white"/>
<path d="M436.5 496C438.5 496 442.5 493 442.5 490V68H410V490C410 493 413 496 416 496H436.5Z" fill="white"/>
<path d="M416 1C413 1 410 4 410 7V41H442.5V6C442.5 3 439.5 1 436.5 1H416Z" fill="white"/>
<path d="M436.5 496C438.5 496 442.5 493 442.5 490V68H410V490C410 493 413 496 416 496H436.5Z" fill="white"/>
<path d="M57 68V41H24.5V68H57Z" fill="white"/>
<path d="M30.5 1C27.5 1 24.5 4 24.5 7V41H57V6C57 3 54 1 51 1L30.5 1Z" fill="white"/>
<path d="M51 496C53 496 57 493 57 490V68H24.5V490C24.5 493 27.5 496 30.5 496H51Z" fill="white"/>
<path d="M57 68V41H24.5V68H57Z" fill="white"/>
<path d="M30.5 1C27.5 1 24.5 4 24.5 7V41H57V6C57 3 54 1 51 1L30.5 1Z" fill="white"/>
<path d="M51 496C53 496 57 493 57 490V68H24.5V490C24.5 493 27.5 496 30.5 496H51Z" fill="white"/>
<path d="M30.5 1C27.5 1 24.5 4 24.5 7V41H57V6C57 3 54 1 51 1L30.5 1Z" fill="white"/>
<path d="M51 496C53 496 57 493 57 490V68H24.5V490C24.5 493 27.5 496 30.5 496H51Z" fill="white"/>
<path d="M30.5 1C27.5 1 24.5 4 24.5 7V41H57V6C57 3 54 1 51 1L30.5 1Z" fill="white"/>
<path d="M51 496C53 496 57 493 57 490V68H24.5V490C24.5 493 27.5 496 30.5 496H51Z" fill="white"/>
<path d="M57 6C57 3 54 1 51 1L30.5 1C27.5 1 24.5 4 24.5 7V41M57 6C57 6.48739 57 19.5119 57 41M57 6V41M57 490C57 493 53 496 51 496H30.5C27.5 496 24.5 493 24.5 490V68M57 490C57 487.736 57 203.018 57 68M57 490V68M24.5 41H6L0.5 46V63L6 68H24.5M24.5 41C24.5 51.926 24.5 53.1116 24.5 68M24.5 41V68M24.5 41H57M24.5 68H57M111.5 68C110.428 103.48 121 156 124 160.5C127 165 157.077 190.733 185.5 200.5C185.5 200.5 191.5 422.5 191.5 433.5C191.5 444.5 198.5 456.5 212.5 456.5C226.5 456.5 233.5 448 233.5 448M111.5 68H136M111.5 68H57M233.5 448C239.986 454.435 244.889 455.852 254 456.5C269.675 454.369 268.257 449.591 273.5 433.5L281.5 200.5C309.226 190.904 338 172 341.5 167C345 162 346.5 102 346.5 68M233.5 448C233.5 448 238.5 398 238.5 389C238.5 380 233.5 300.5 233.5 300.5L229 389L231 418.5L233.5 448ZM346.5 68H321M346.5 68H410M442.5 41V6C442.5 3 439.5 1 436.5 1H416C413 1 410 4 410 7V41M442.5 41H476L481 46V63L476 68H442.5M442.5 41H410M442.5 41V68M57 41V68M57 41C57 51.9736 57 53.1544 57 68M57 41H410M136 68C138.44 67.0631 159.057 136.085 160 135.5C160.943 134.915 185.468 146.561 196 156H205.5C200.127 147.768 193.851 138.474 193.5 127.5C195.148 114.769 197.02 108.236 206.5 99C213.939 91.9575 219.955 89.9518 233.5 88.5C246.9 89.2868 254.227 91.6624 266.5 104C273.398 114.785 274.728 121.409 273.5 134C271.725 141.807 264.601 149.667 261 156H269C284.92 139.844 314.165 133.122 306 135.5C297.835 137.878 316.104 89.199 321 68M136 68H321M410 68V41M410 68V490C410 493 413 496 416 496H436.5C438.5 496 442.5 493 442.5 490V68M410 68H442.5" stroke="white"/>
</svg>
