<svg width="515" height="354" viewBox="0 0 515 354" fill="none" xmlns="http://www.w3.org/2000/svg">
<path d="M409.081 1.00254C396.248 0.835877 369.981 8.80254 367.581 42.0025C365.181 75.2025 394.248 82.5025 409.081 82.0025C421.915 81.8359 447.881 73.6026 449.081 42.0025C450.281 10.4025 422.915 1.50251 409.081 1.00254Z" fill="white"/>
<path d="M395.081 136.503L355.081 209.503C367.081 215.836 395.581 233.003 413.581 251.003C436.081 273.503 471.581 339.003 441.581 350.503C417.581 359.703 407.248 335.669 405.081 322.503L383.081 280.003C374.081 271.003 346.981 249.603 310.581 236.003C298.415 250.336 264.88 278.203 228.08 275.003C191.28 271.803 172.747 257.669 168.081 251.003C166.414 239.503 169.58 217.703 195.58 222.503C208.247 229.503 238.181 239.303 256.581 222.503C261.414 219.836 272.581 212.103 278.581 202.503L331.081 106.503C317.081 100.836 282.981 98.9027 258.581 136.503C246.248 142.003 221.981 145.803 223.581 117.003C236.914 94.8359 276.381 52.9026 327.581 62.5026C333.748 62.8359 352.381 67.2025 377.581 82.0025C402.781 96.8025 413.736 99.5024 416.07 99.0024C429.065 103.428 458.07 101.502 482.07 65.0024C496.57 60.5024 519.781 61.0025 512.581 89.0025C503.748 103.836 477.681 134.603 444.081 139.003C410.481 143.403 397.415 139.169 395.081 136.503Z" fill="white"/>
<path d="M159.081 35.5024C155.247 33.1691 149.881 26.9024 159.081 20.5024H321.081C325.581 23.0024 331.881 29.5024 321.081 35.5024H159.081Z" fill="white"/>
<path d="M18.0743 110.002C14.241 107.669 8.8743 101.402 18.0743 95.0024H180.074C184.574 97.5024 190.874 104.002 180.074 110.002H18.0743Z" fill="white"/>
<path d="M68.5743 194.002C64.741 191.669 59.3743 185.402 68.5743 179.002H230.574C235.074 181.502 241.374 188.002 230.574 194.002H68.5743Z" fill="white"/>
<path d="M6.0798 290.003C2.24646 287.669 -3.1202 281.403 6.0798 275.003H168.08C172.58 277.503 178.88 284.003 168.08 290.003H6.0798Z" fill="white"/>
<path d="M6.0798 275.003C-3.1202 281.403 2.24646 287.669 6.0798 290.003H168.08C178.88 284.003 172.58 277.503 168.08 275.003M6.0798 275.003C69.3447 275.003 104.815 275.003 168.08 275.003M6.0798 275.003H168.08M395.081 136.503L355.081 209.503C367.081 215.836 395.581 233.003 413.581 251.003C436.081 273.503 471.581 339.003 441.581 350.503C417.581 359.703 407.248 335.669 405.081 322.503L383.081 280.003C374.081 271.003 346.981 249.603 310.581 236.003C298.415 250.336 264.88 278.203 228.08 275.003C191.28 271.803 172.747 257.669 168.081 251.003C166.414 239.503 169.58 217.703 195.58 222.503C208.247 229.503 238.181 239.303 256.581 222.503C261.414 219.836 272.581 212.103 278.581 202.503L331.081 106.503C317.081 100.836 282.981 98.9027 258.581 136.503C246.248 142.003 221.981 145.803 223.581 117.003C236.914 94.8359 276.381 52.9026 327.581 62.5026C333.748 62.8359 352.381 67.2025 377.581 82.0025C402.781 96.8025 413.736 99.5024 416.07 99.0024C429.065 103.428 458.07 101.502 482.07 65.0024C496.57 60.5024 519.781 61.0025 512.581 89.0025C503.748 103.836 477.681 134.603 444.081 139.003C410.481 143.403 397.415 139.169 395.081 136.503ZM409.081 1.00254C396.248 0.835877 369.981 8.80254 367.581 42.0025C365.181 75.2025 394.248 82.5025 409.081 82.0025C421.915 81.8359 447.881 73.6026 449.081 42.0025C450.281 10.4025 422.915 1.50251 409.081 1.00254ZM159.081 35.5024C155.247 33.1691 149.881 26.9024 159.081 20.5024H321.081C325.581 23.0024 331.881 29.5024 321.081 35.5024H159.081ZM18.0743 110.002C14.241 107.669 8.8743 101.402 18.0743 95.0024H180.074C184.574 97.5024 190.874 104.002 180.074 110.002H18.0743ZM68.5743 194.002C64.741 191.669 59.3743 185.402 68.5743 179.002H230.574C235.074 181.502 241.374 188.002 230.574 194.002H68.5743Z" stroke="white"/>
</svg>
