<svg width="609" height="847" viewBox="0 0 609 847" fill="none" xmlns="http://www.w3.org/2000/svg">
<path d="M577.716 207.136C597.932 207.136 607.59 229.939 608 250.633C608.422 271.937 596.432 296.02 577.716 296.02H310.839C310.839 296.02 217.331 391.117 214.309 468.116C214.049 474.757 214.309 485.136 214.309 485.136H386.549C399.798 485.136 423.923 495.659 431.975 515.395C440.638 536.627 422.666 562.759 416.833 572.129C411 581.5 252 815.5 237.022 835C222.044 854.5 195.495 845.328 176.454 831.218C156.934 816.752 134.814 803.684 155.634 772.592C176.454 741.5 276.77 589.15 276.77 589.15C276.77 589.15 84.9621 596.398 57.2115 589.15C29.4609 581.902 19.9591 570.93 8.00016 545.653C-3.95873 520.376 2.0397 481.82 8.00016 441.639C23.7087 335.747 115.912 207.272 149.956 207.136C184 207 557.5 207.136 577.716 207.136Z" fill="#D9D9D9"/>
<path d="M276.77 1C223.48 1 179.712 44.1619 180.24 97.449C180.762 150.217 224 192.007 276.77 192.007C329.54 192.007 372.777 150.217 373.3 97.449C373.827 44.1619 330.06 1 276.77 1Z" fill="white"/>
<path d="M577.716 296.02C596.432 296.02 608.422 271.937 608 250.633C607.59 229.939 597.932 207.136 577.716 207.136C557.5 207.136 184 207 149.956 207.136C115.912 207.272 23.7087 335.747 8.00016 441.639C2.0397 481.82 -3.95873 520.376 8.00016 545.653C19.9591 570.93 29.4609 581.902 57.2115 589.15C84.9621 596.398 276.77 589.15 276.77 589.15C276.77 589.15 176.454 741.5 155.634 772.592C134.814 803.684 156.934 816.752 176.454 831.218C195.495 845.328 222.044 854.5 237.022 835C252 815.5 411 581.5 416.833 572.129C422.666 562.759 440.638 536.627 431.975 515.395C423.923 495.659 399.798 485.136 386.549 485.136M577.716 296.02C559 296.02 310.839 296.02 310.839 296.02M577.716 296.02H310.839M310.839 296.02C310.839 296.02 217.331 391.117 214.309 468.116C214.049 474.757 214.309 485.136 214.309 485.136M214.309 485.136C214.309 485.136 373.3 485.136 386.549 485.136M214.309 485.136H386.549M276.77 1C223.48 1 179.712 44.1619 180.24 97.449C180.762 150.217 224 192.007 276.77 192.007C329.54 192.007 372.777 150.217 373.3 97.449C373.827 44.1619 330.06 1 276.77 1Z" stroke="white"/>
</svg>
