<?xml version="1.0" standalone="no"?>
<!DOCTYPE svg PUBLIC "-//W3C//DTD SVG 20010904//EN"
 "http://www.w3.org/TR/2001/REC-SVG-20010904/DTD/svg10.dtd">
<svg version="1.0" xmlns="http://www.w3.org/2000/svg"
 width="162.000000pt" height="143.000000pt" viewBox="0 0 162.000000 143.000000"
 preserveAspectRatio="xMidYMid meet">

<g transform="translate(0.000000,143.000000) scale(0.100000,-0.100000)"
fill="#000000" stroke="none">
<path d="M0 715 l0 -715 810 0 810 0 0 715 0 715 -810 0 -810 0 0 -715z m941
385 c27 -15 43 -51 74 -168 l27 -103 -22 -24 c-42 -44 -71 -49 -128 -22 l-50
24 -89 -37 c-48 -20 -121 -53 -160 -74 -72 -36 -73 -37 -73 -75 0 -49 -30 -88
-75 -97 -58 -11 -82 2 -115 59 -36 63 -74 172 -66 192 7 20 98 84 119 85 10 0
29 -13 43 -30 16 -19 31 -27 42 -23 9 3 88 39 175 81 l157 76 0 46 c0 36 5 51
23 67 36 33 81 42 118 23z m325 -174 c41 -42 57 -68 75 -124 l22 -70 -21 -29
c-34 -48 -63 -58 -107 -37 -38 18 -38 17 -89 -9 -28 -15 -95 -61 -149 -103
l-99 -76 7 -46 c6 -43 4 -49 -22 -73 -15 -14 -42 -31 -60 -38 -40 -16 -50 -9
-125 79 -68 80 -78 99 -78 146 0 30 7 44 40 76 40 37 73 48 85 28 3 -6 20 -17
37 -26 30 -15 31 -15 133 46 56 34 121 79 144 100 36 33 41 43 41 82 0 24 7
54 16 67 17 23 71 61 88 61 6 0 33 -24 62 -54z"/>
<path d="M901 1055 c-1 -23 -3 -27 -11 -15 -7 12 -10 8 -10 -15 0 -20 -3 -26
-9 -17 -6 10 -13 3 -25 -23 -16 -33 -16 -40 -2 -88 19 -61 22 -67 58 -90 33
-21 48 -21 73 -3 15 11 17 17 7 28 -18 23 -61 144 -71 201 -6 36 -9 43 -10 22z"/>
<path d="M930 1059 c0 -50 62 -220 76 -206 7 7 -47 194 -62 214 -12 17 -13 16
-14 -8z"/>
<path d="M765 918 c-11 -6 -26 -20 -33 -30 -7 -10 -19 -18 -26 -18 -8 0 -17
-7 -20 -16 -4 -11 -14 -15 -31 -11 -14 2 -23 2 -21 -1 6 -6 -24 -31 -37 -32
-5 0 -5 6 -2 13 4 6 -3 1 -15 -13 -12 -14 -19 -19 -15 -11 6 10 2 11 -16 6
-13 -4 -27 -13 -31 -19 -6 -8 -8 -8 -8 1 0 9 -8 9 -31 1 -27 -9 -34 -7 -61 18
l-30 29 7 -25 c15 -52 66 -166 85 -190 l20 -25 0 36 c0 22 7 42 18 52 20 18
197 103 275 132 37 14 46 22 41 34 -3 9 -10 31 -16 49 -10 34 -21 38 -53 20z"/>
<path d="M342 781 c-14 -46 -15 -76 -1 -42 5 13 12 22 14 19 3 -3 1 -18 -5
-33 -12 -32 -19 -28 -30 17 l-8 33 -1 -36 c-2 -53 26 -136 58 -171 28 -31 29
-32 70 -20 22 7 41 15 41 18 0 2 -13 28 -29 57 -16 28 -42 85 -57 125 -15 39
-31 72 -34 72 -4 0 -12 -17 -18 -39z"/>
<path d="M1166 925 c-9 -23 -8 -27 5 -19 7 4 9 -2 7 -17 -2 -13 -9 -23 -16
-21 -9 2 -11 -4 -7 -17 3 -11 1 -22 -5 -26 -24 -15 76 -145 113 -145 21 0 59
47 46 56 -7 4 -9 3 -6 -3 8 -12 -14 -23 -44 -23 -26 0 -26 40 1 47 25 7 25 5
-7 56 -15 23 -35 62 -44 87 -10 25 -18 38 -19 30 0 -12 -2 -12 -9 -2 -7 11
-10 10 -15 -3z"/>
<path d="M1220 936 c0 -12 58 -117 80 -146 31 -41 32 -17 0 46 -26 54 -80 120
-80 100z"/>
<path d="M1076 751 c-26 -27 -60 -55 -74 -62 -15 -8 -31 -20 -35 -27 -5 -7
-12 -10 -18 -7 -5 4 -13 -5 -19 -19 -5 -14 -12 -26 -16 -26 -3 0 -4 7 0 15 3
8 1 15 -5 15 -5 0 -12 -6 -15 -13 -3 -8 -10 -14 -17 -15 -7 -1 -29 -5 -50 -8
-26 -4 -45 -1 -62 10 -14 9 -25 14 -25 10 0 -19 69 -131 102 -167 l39 -42 -6
36 c-5 35 -3 38 63 92 65 52 210 151 233 159 8 3 -35 98 -45 98 -1 0 -23 -22
-50 -49z"/>
<path d="M681 610 c-23 -20 -47 -90 -30 -90 5 0 9 -9 9 -19 0 -22 115 -161
133 -161 7 0 19 5 27 10 12 7 12 12 2 22 -9 9 -12 9 -12 0 0 -9 -8 -8 -30 3
-16 9 -30 18 -30 21 0 3 5 2 10 -1 6 -3 10 -1 10 6 0 7 7 4 15 -7 11 -14 15
-15 14 -4 -3 29 1 41 11 35 14 -9 2 20 -36 83 -19 30 -38 70 -44 88 -13 39
-17 40 -49 14z m1 -72 l-9 -33 -7 33 c-5 22 -3 38 6 49 12 14 13 14 16 1 2 -9
-1 -31 -6 -50z"/>
<path d="M671 564 c0 -11 3 -14 6 -6 3 7 2 16 -1 19 -3 4 -6 -2 -5 -13z"/>
</g>
</svg>
