<svg width="520" height="247" viewBox="0 0 520 247" fill="none" xmlns="http://www.w3.org/2000/svg">
<path fill-rule="evenodd" clip-rule="evenodd" d="M461.999 115C404.999 115 404.999 59 404.999 59C404.999 59 404.999 1 461.999 1C518.999 1 518.999 59 518.999 59C518.999 59 518.999 115 461.999 115Z" fill="white"/>
<path d="M22.9993 242L1.99932 169.5C-0.289328 161.754 1.96733 159.296 8.99932 156.5L177.499 110C177.178 95.8432 181.379 90.2614 194.999 83.5L343.999 40.5C343.999 40.5 373.499 36.5 388.499 67C403.499 97.5 368.499 122 368.499 122C366.666 116.731 367.266 109.787 368.499 97C361.531 127.963 356.751 144.887 342.999 172.5C331.999 181.5 375.999 225.5 375.999 225.5L377.499 233.5L373.999 242C373.999 242 369.5 246.5 354.5 246.5C339.5 246.5 316.999 242 316.999 242L277.999 193C274.899 186.602 274.457 182.192 276.499 172.5C281.408 144.645 286.34 129.905 300.999 106C284.922 121.026 278.592 130.759 272.499 150.5L75.9993 206L77.4993 225C76.873 233.114 75.4476 236.921 70.4993 242C70.4993 242 64.5 246.5 48 246.5C31.5 246.5 22.9993 242 22.9993 242Z" fill="white"/>
<path fill-rule="evenodd" clip-rule="evenodd" d="M461.999 115C404.999 115 404.999 59 404.999 59C404.999 59 404.999 1 461.999 1C518.999 1 518.999 59 518.999 59C518.999 59 518.999 115 461.999 115Z" stroke="white"/>
<path d="M22.9993 242L1.99932 169.5C-0.289328 161.754 1.96733 159.296 8.99932 156.5L177.499 110C177.178 95.8432 181.379 90.2614 194.999 83.5L343.999 40.5C343.999 40.5 373.499 36.5 388.499 67C403.499 97.5 368.499 122 368.499 122C366.666 116.731 367.266 109.787 368.499 97C361.531 127.963 356.751 144.887 342.999 172.5C331.999 181.5 375.999 225.5 375.999 225.5L377.499 233.5L373.999 242C373.999 242 369.5 246.5 354.5 246.5C339.5 246.5 316.999 242 316.999 242L277.999 193C274.899 186.602 274.457 182.192 276.499 172.5C281.408 144.645 286.34 129.905 300.999 106C284.922 121.026 278.592 130.759 272.499 150.5L75.9993 206L77.4993 225C76.873 233.114 75.4476 236.921 70.4993 242C70.4993 242 64.5 246.5 48 246.5C31.5 246.5 22.9993 242 22.9993 242Z" stroke="white"/>
</svg>
