<svg width="602" height="352" viewBox="0 0 602 352" fill="none" xmlns="http://www.w3.org/2000/svg">
<path d="M404.5 44.9998C402 50.9998 382.001 106 379.5 112.5C377 119 392 123.5 394 118.5C396.001 113.5 403 94.4998 403 94.4998L419 128L441.5 136.5L446 126.5L426.5 118.5L408.5 78.9998C408.5 78.9998 416.5 57.5 419 50.9998C421.501 44.4995 407.001 38.9998 404.5 44.9998Z" fill="#D9D9D9"/>
<path d="M215.5 139.5L214 133.5L437 155.5V161L215.5 139.5Z" fill="#D9D9D9"/>
<path d="M41.0005 332.5H30.0005L30.5005 297.5C30.5005 297.5 30.5005 294 33.0005 291.5C35.5005 289 36.001 288 38.0005 288C40 288 391.5 288 391.5 288L407.5 270H384.5L436 213.5L419.5 198.5L355.5 270C355.5 270 38.0005 270 35.0005 270C32.0005 270 27.001 271 20.5005 277.5C14 284 11.501 290 11.5005 292.5C11.5 295 11.5005 332.5 11.5005 332.5H1.50049V351.5H41.0005V332.5Z" fill="#D9D9D9"/>
<path d="M546 350.5V332C546 332 527.5 332 523 332C518.501 332 518.501 331 515.5 328C512.5 325 457 263 457 263L444 276.5L496.5 335C496.5 335 502.001 341.5 508 345.5C514 349.5 516.001 350.5 519 350.5C522 350.5 546 350.5 546 350.5Z" fill="#D9D9D9"/>
<path d="M192 264H66.5005V254C66.5005 252 70.5 247.5 75.5005 247.5C80.501 247.5 180 247 184.5 247.5C189.001 248 190.627 251.444 192 255.5C193.065 258.644 192 264 192 264Z" fill="#D9D9D9"/>
<path d="M0.500488 43.4998C0.500488 67.248 19.7526 86.3625 43.5005 86.4998C67.3868 86.6378 87.0005 67.3865 87.0005 43.4998C87.0005 19.613 67.3868 0.36169 43.5005 0.499762C19.7526 0.637032 0.500488 19.7515 0.500488 43.4998Z" fill="#D9D9D9"/>
<path d="M331.5 351V332H356C359.102 331.666 360.648 330.937 363 328.5L488.5 189C488.5 189 481.801 175.332 482 166C482.477 143.636 500.638 125.441 523 126C544.81 126.545 562.134 144.183 562 166C561.864 188.233 543.233 205.357 521 205.5C513.799 205.546 503 201.5 503 201.5L393 323.5C393 323.5 378 339.5 373 345C368 350.5 365 351 360 351H331.5Z" fill="#D9D9D9"/>
<path d="M498 214.5L481.5 233.5C481.5 233.5 506.129 245.488 523 245.5C566.494 245.532 600.864 209.494 601 166C601.137 122.366 566.626 86.8233 523 86C478.548 85.1612 441.508 121.543 442 166C442.217 185.636 458.5 213.5 458.5 213.5L475.5 194.5C475.5 194.5 467.465 177.56 467.5 166C467.592 135.76 492.771 111.16 523 112C552.401 112.817 575.5 136.588 575.5 166C575.5 195.412 552.404 219.301 523 220C513.006 220.237 498 214.5 498 214.5Z" fill="#D9D9D9"/>
<path d="M375.5 231.5C378.855 219.562 370.5 205 361.5 203C352.5 201 285.187 177.058 235 179.5C197.621 181.319 141.5 200.5 141.5 200.5L122.5 165.5C122.5 165.5 112.997 166.322 107 165.5C90.803 163.28 81.9385 156.68 70.5 145C63.8294 138.188 56.1465 134.527 56.5 125C56.8359 115.946 61.8814 109.294 70.5 106.5C75.1436 104.994 81.5 106 83 106.5C84.5 107 118.5 126.5 118.5 126.5C118.5 126.5 160.347 115.287 187 119C194.51 120.046 206 123 206 123C206 123 203.461 118.802 201 117C197.255 114.258 194.023 115.041 189.5 114C161.687 107.596 116.5 110.5 116.5 110.5C116.5 110.5 95.7489 90.5934 79 89.5C76.467 89.3346 75.0267 89.2565 72.5 89.5C59.3953 90.7629 51.6197 97.6199 45 109C39.1404 119.073 40.5716 126.846 40.5 138.5C40.3406 164.433 61.5 201.5 61.5 201.5L89.5 242.5H172C172 242.5 210.448 229.96 236 228C280.527 224.585 336 245 348.5 248.5C361 252 372.129 243.495 375.5 231.5Z" fill="#D9D9D9"/>
<path d="M63.5 115.5C67.3559 110.916 72.0619 111.285 78 110.5C95.3195 108.21 109 129.5 117.5 131.5C126 133.5 179 123 185 123C191 123 195 124 200 125.5C205 127 211.241 133.24 211 140.5C210.769 147.449 202 153 200 154.5C198 156 196.5 155.5 193.5 155.5C190.5 155.5 189.5 152 187 151.5C184.5 151 126.5 158.5 120.5 159.5C114.5 160.5 111 159.5 111 159.5C89.7608 151.721 62 134 61 130.5C60 127 59.677 120.044 63.5 115.5Z" fill="#D9D9D9"/>
<path d="M404.5 44.9998C402 50.9998 382.001 106 379.5 112.5C377 119 392 123.5 394 118.5C396.001 113.5 403 94.4998 403 94.4998L419 128L441.5 136.5L446 126.5L426.5 118.5L408.5 78.9998C408.5 78.9998 416.5 57.5 419 50.9998C421.501 44.4995 407.001 38.9998 404.5 44.9998Z" stroke="white"/>
<path d="M215.5 139.5L214 133.5L437 155.5V161L215.5 139.5Z" stroke="white"/>
<path d="M41.0005 332.5H30.0005L30.5005 297.5C30.5005 297.5 30.5005 294 33.0005 291.5C35.5005 289 36.001 288 38.0005 288C40 288 391.5 288 391.5 288L407.5 270H384.5L436 213.5L419.5 198.5L355.5 270C355.5 270 38.0005 270 35.0005 270C32.0005 270 27.001 271 20.5005 277.5C14 284 11.501 290 11.5005 292.5C11.5 295 11.5005 332.5 11.5005 332.5H1.50049V351.5H41.0005V332.5Z" stroke="white"/>
<path d="M546 350.5V332C546 332 527.5 332 523 332C518.501 332 518.501 331 515.5 328C512.5 325 457 263 457 263L444 276.5L496.5 335C496.5 335 502.001 341.5 508 345.5C514 349.5 516.001 350.5 519 350.5C522 350.5 546 350.5 546 350.5Z" stroke="white"/>
<path d="M192 264H66.5005V254C66.5005 252 70.5 247.5 75.5005 247.5C80.501 247.5 180 247 184.5 247.5C189.001 248 190.627 251.444 192 255.5C193.065 258.644 192 264 192 264Z" stroke="white"/>
<path d="M0.500488 43.4998C0.500488 67.248 19.7526 86.3625 43.5005 86.4998C67.3868 86.6378 87.0005 67.3865 87.0005 43.4998C87.0005 19.613 67.3868 0.36169 43.5005 0.499762C19.7526 0.637032 0.500488 19.7515 0.500488 43.4998Z" stroke="white"/>
<path d="M331.5 351V332H356C359.102 331.666 360.648 330.937 363 328.5L488.5 189C488.5 189 481.801 175.332 482 166C482.477 143.636 500.638 125.441 523 126C544.81 126.545 562.134 144.183 562 166C561.864 188.233 543.233 205.357 521 205.5C513.799 205.546 503 201.5 503 201.5L393 323.5C393 323.5 378 339.5 373 345C368 350.5 365 351 360 351H331.5Z" stroke="white"/>
<path d="M498 214.5L481.5 233.5C481.5 233.5 506.129 245.488 523 245.5C566.494 245.532 600.864 209.494 601 166C601.137 122.366 566.626 86.8233 523 86C478.548 85.1612 441.508 121.543 442 166C442.217 185.636 458.5 213.5 458.5 213.5L475.5 194.5C475.5 194.5 467.465 177.56 467.5 166C467.592 135.76 492.771 111.16 523 112C552.401 112.817 575.5 136.588 575.5 166C575.5 195.412 552.404 219.301 523 220C513.006 220.237 498 214.5 498 214.5Z" stroke="white"/>
<path d="M375.5 231.5C378.855 219.562 370.5 205 361.5 203C352.5 201 285.187 177.058 235 179.5C197.621 181.319 141.5 200.5 141.5 200.5L122.5 165.5C122.5 165.5 112.997 166.322 107 165.5C90.803 163.28 81.9385 156.68 70.5 145C63.8294 138.188 56.1465 134.527 56.5 125C56.8359 115.946 61.8814 109.294 70.5 106.5C75.1436 104.994 81.5 106 83 106.5C84.5 107 118.5 126.5 118.5 126.5C118.5 126.5 160.347 115.287 187 119C194.51 120.046 206 123 206 123C206 123 203.461 118.802 201 117C197.255 114.258 194.023 115.041 189.5 114C161.687 107.596 116.5 110.5 116.5 110.5C116.5 110.5 95.7489 90.5934 79 89.5C76.467 89.3346 75.0267 89.2565 72.5 89.5C59.3953 90.7629 51.6197 97.6199 45 109C39.1404 119.073 40.5716 126.846 40.5 138.5C40.3406 164.433 61.5 201.5 61.5 201.5L89.5 242.5H172C172 242.5 210.448 229.96 236 228C280.527 224.585 336 245 348.5 248.5C361 252 372.129 243.495 375.5 231.5Z" stroke="white"/>
<path d="M63.5 115.5C67.3559 110.916 72.0619 111.285 78 110.5C95.3195 108.21 109 129.5 117.5 131.5C126 133.5 179 123 185 123C191 123 195 124 200 125.5C205 127 211.241 133.24 211 140.5C210.769 147.449 202 153 200 154.5C198 156 196.5 155.5 193.5 155.5C190.5 155.5 189.5 152 187 151.5C184.5 151 126.5 158.5 120.5 159.5C114.5 160.5 111 159.5 111 159.5C89.7608 151.721 62 134 61 130.5C60 127 59.677 120.044 63.5 115.5Z" stroke="white"/>
</svg>
