<svg width="603" height="475" viewBox="0 0 603 475" fill="none" xmlns="http://www.w3.org/2000/svg">
<path d="M406.501 353.501C420.503 346.501 427.001 346.501 427.001 346.501C427.001 346.501 378.501 262.001 378.501 257.001C401.629 215.265 409.18 190.815 419.001 146.501L422.501 143.501C463.212 107.635 486.309 87.9055 527.501 53.0005C535.22 38.1643 535.902 29.8343 527.501 15.0005C515.685 1.18987 506.387 -0.455527 487.001 3.00052C439.989 42.3247 412.723 65.422 363.001 108.501L361.501 113.001C330.319 163.809 318.456 194.11 309.501 252.001L133.501 348.501C133.501 348.501 148.003 344.001 158.001 344.001C168 344.001 162.503 345.501 173.001 345.501C183.5 345.501 201.501 355.501 201.501 355.501C201.501 355.501 218.501 369.001 229.001 369.001C239.501 369.001 239.501 368.001 239.501 368.001L261.501 353.501L283.001 346.501C283.001 346.501 289.003 344.001 302.001 344.001C315 344.001 321.501 346.501 321.501 346.501C321.501 346.501 336.503 350.001 347.001 356.501C357.5 363.001 364.501 368.001 364.501 368.001C364.501 368.001 365.501 369.001 374.501 369.001C383.501 369.001 383.501 368.001 383.501 368.001C383.501 368.001 392.5 360.501 406.501 353.501Z" fill="white"/>
<path d="M410.001 244.501C410.001 244.501 411.501 311.501 477.501 311.501C543.501 311.501 543.501 244.501 543.501 244.501C543.501 244.501 543.501 178.001 477.501 178.001C411.501 178.001 410.001 244.501 410.001 244.501Z" fill="white"/>
<path d="M9.00122 386.001C-3.34791 386.087 1.20783 364.081 9.00122 364.001C16.7946 363.92 20.0012 364.001 28.0012 364.001C36.0012 364.001 45.5012 370.001 45.5012 370.001C45.5012 370.001 64.0012 387.001 86.0012 387.001C108.001 387.001 127.501 370.001 127.501 370.001C127.501 370.001 135.001 363.001 158.001 363.001C181.001 363.001 190.501 370.001 190.501 370.001C190.501 370.001 205.001 387.001 229.001 387.001C253.001 387.001 271.501 370.001 271.501 370.001C271.501 370.001 278.501 363.001 301.001 363.001C323.501 363.001 333.001 370.001 333.001 370.001C333.001 370.001 351.501 388.001 374.501 388.001C397.501 388.001 416.001 370.001 416.001 370.001C416.001 370.001 422.001 362.501 446.001 362.501C470.001 362.501 477.501 370.001 477.501 370.001C477.501 370.001 494.502 387.001 518.001 387.001C541.5 387.001 550.5 375.501 559.001 370.001C567.502 364.501 586.502 362.501 589.001 362.501C591.5 362.501 602.001 364.001 602.001 375.501C602.001 387.001 589.001 387.001 589.001 387.001C573.506 387.39 567.245 390.361 559.001 399.001C545.096 409.908 536.062 412.763 518.001 412.501C498.577 412.448 489.211 410.218 477.501 399.001C477.501 399.001 467.001 387.001 446.001 387.001C425.001 387.001 416.001 399.001 416.001 399.001C416.001 399.001 399 412.501 374.501 412.501C350.003 412.501 333.001 399.001 333.001 399.001C333.001 399.001 319.5 387.001 301.001 387.001C282.503 387.001 271.501 399.001 271.501 399.001C271.501 399.001 253.5 412.501 229.001 412.501C204.503 412.501 190.501 399.001 190.501 399.001C190.501 399.001 174 387.001 158.001 387.001C142.003 387.001 127.501 399.001 127.501 399.001C127.501 399.001 107.259 412.741 86.0012 412.501C64.743 412.26 53.7983 407.729 35.5012 392.501C35.5012 392.501 21.3504 385.914 9.00122 386.001Z" fill="white"/>
<path d="M9.00122 447C-3.34791 447.087 1.20783 425.081 9.00122 425C16.7946 424.919 20.0012 425 28.0012 425C36.0012 425 45.5012 431 45.5012 431C45.5012 431 64.0012 448 86.0012 448C108.001 448 127.501 431 127.501 431C127.501 431 135.001 424 158.001 424C181.001 424 190.501 431 190.501 431C190.501 431 205.001 448 229.001 448C253.001 448 271.501 431 271.501 431C271.501 431 278.501 424 301.001 424C323.501 424 333.001 431 333.001 431C333.001 431 351.501 449 374.501 449C397.501 449 416.001 431 416.001 431C416.001 431 422.001 423.5 446.001 423.5C470.001 423.5 477.501 431 477.501 431C477.501 431 494.502 448 518.001 448C541.5 448 550.5 436.5 559.001 431C567.502 425.5 586.502 423.5 589.001 423.5C591.5 423.5 602.001 425 602.001 436.5C602.001 448 589.001 448 589.001 448C573.506 448.389 567.245 451.36 559.001 460C545.096 470.907 536.062 473.762 518.001 473.5C498.577 473.448 489.211 471.217 477.501 460C477.501 460 467.001 448 446.001 448C425.001 448 416.001 460 416.001 460C416.001 460 395.064 473.736 374.501 473.5C353.939 473.264 344.929 470.216 333.001 460C333.001 460 319.5 448 301.001 448C282.503 448 271.501 460 271.501 460C271.501 460 253.5 473.5 229.001 473.5C204.503 473.5 190.501 460 190.501 460C190.501 460 174 448 158.001 448C142.003 448 127.501 460 127.501 460C127.501 460 107.259 473.741 86.0012 473.5C64.743 473.259 53.7983 468.729 35.5012 453.5C35.5012 453.5 21.3504 446.913 9.00122 447Z" fill="white"/>
<path d="M406.501 353.501C420.503 346.501 427.001 346.501 427.001 346.501C427.001 346.501 378.501 262.001 378.501 257.001C401.629 215.265 409.18 190.815 419.001 146.501L422.501 143.501C463.212 107.635 486.309 87.9055 527.501 53.0005C535.22 38.1643 535.902 29.8343 527.501 15.0005C515.685 1.18987 506.387 -0.455527 487.001 3.00052C439.989 42.3247 412.723 65.422 363.001 108.501L361.501 113.001C330.319 163.809 318.456 194.11 309.501 252.001L133.501 348.501C133.501 348.501 148.003 344.001 158.001 344.001C168 344.001 162.503 345.501 173.001 345.501C183.5 345.501 201.501 355.501 201.501 355.501C201.501 355.501 218.501 369.001 229.001 369.001C239.501 369.001 239.501 368.001 239.501 368.001L261.501 353.501L283.001 346.501C283.001 346.501 289.003 344.001 302.001 344.001C315 344.001 321.501 346.501 321.501 346.501C321.501 346.501 336.503 350.001 347.001 356.501C357.5 363.001 364.501 368.001 364.501 368.001C364.501 368.001 365.501 369.001 374.501 369.001C383.501 369.001 383.501 368.001 383.501 368.001C383.501 368.001 392.5 360.501 406.501 353.501Z" stroke="white"/>
<path d="M410.001 244.501C410.001 244.501 411.501 311.501 477.501 311.501C543.501 311.501 543.501 244.501 543.501 244.501C543.501 244.501 543.501 178.001 477.501 178.001C411.501 178.001 410.001 244.501 410.001 244.501Z" stroke="white"/>
<path d="M9.00122 386.001C-3.34791 386.087 1.20783 364.081 9.00122 364.001C16.7946 363.92 20.0012 364.001 28.0012 364.001C36.0012 364.001 45.5012 370.001 45.5012 370.001C45.5012 370.001 64.0012 387.001 86.0012 387.001C108.001 387.001 127.501 370.001 127.501 370.001C127.501 370.001 135.001 363.001 158.001 363.001C181.001 363.001 190.501 370.001 190.501 370.001C190.501 370.001 205.001 387.001 229.001 387.001C253.001 387.001 271.501 370.001 271.501 370.001C271.501 370.001 278.501 363.001 301.001 363.001C323.501 363.001 333.001 370.001 333.001 370.001C333.001 370.001 351.501 388.001 374.501 388.001C397.501 388.001 416.001 370.001 416.001 370.001C416.001 370.001 422.001 362.501 446.001 362.501C470.001 362.501 477.501 370.001 477.501 370.001C477.501 370.001 494.502 387.001 518.001 387.001C541.5 387.001 550.5 375.501 559.001 370.001C567.502 364.501 586.502 362.501 589.001 362.501C591.5 362.501 602.001 364.001 602.001 375.501C602.001 387.001 589.001 387.001 589.001 387.001C573.506 387.39 567.245 390.361 559.001 399.001C545.096 409.908 536.062 412.763 518.001 412.501C498.577 412.448 489.211 410.218 477.501 399.001C477.501 399.001 467.001 387.001 446.001 387.001C425.001 387.001 416.001 399.001 416.001 399.001C416.001 399.001 399 412.501 374.501 412.501C350.003 412.501 333.001 399.001 333.001 399.001C333.001 399.001 319.5 387.001 301.001 387.001C282.503 387.001 271.501 399.001 271.501 399.001C271.501 399.001 253.5 412.501 229.001 412.501C204.503 412.501 190.501 399.001 190.501 399.001C190.501 399.001 174 387.001 158.001 387.001C142.003 387.001 127.501 399.001 127.501 399.001C127.501 399.001 107.259 412.741 86.0012 412.501C64.743 412.26 53.7983 407.729 35.5012 392.501C35.5012 392.501 21.3504 385.914 9.00122 386.001Z" stroke="white"/>
<path d="M9.00122 447C-3.34791 447.087 1.20783 425.081 9.00122 425C16.7946 424.919 20.0012 425 28.0012 425C36.0012 425 45.5012 431 45.5012 431C45.5012 431 64.0012 448 86.0012 448C108.001 448 127.501 431 127.501 431C127.501 431 135.001 424 158.001 424C181.001 424 190.501 431 190.501 431C190.501 431 205.001 448 229.001 448C253.001 448 271.501 431 271.501 431C271.501 431 278.501 424 301.001 424C323.501 424 333.001 431 333.001 431C333.001 431 351.501 449 374.501 449C397.501 449 416.001 431 416.001 431C416.001 431 422.001 423.5 446.001 423.5C470.001 423.5 477.501 431 477.501 431C477.501 431 494.502 448 518.001 448C541.5 448 550.5 436.5 559.001 431C567.502 425.5 586.502 423.5 589.001 423.5C591.5 423.5 602.001 425 602.001 436.5C602.001 448 589.001 448 589.001 448C573.506 448.389 567.245 451.36 559.001 460C545.096 470.907 536.062 473.762 518.001 473.5C498.577 473.448 489.211 471.217 477.501 460C477.501 460 467.001 448 446.001 448C425.001 448 416.001 460 416.001 460C416.001 460 395.064 473.736 374.501 473.5C353.939 473.264 344.929 470.216 333.001 460C333.001 460 319.5 448 301.001 448C282.503 448 271.501 460 271.501 460C271.501 460 253.5 473.5 229.001 473.5C204.503 473.5 190.501 460 190.501 460C190.501 460 174 448 158.001 448C142.003 448 127.501 460 127.501 460C127.501 460 107.259 473.741 86.0012 473.5C64.743 473.259 53.7983 468.729 35.5012 453.5C35.5012 453.5 21.3504 446.913 9.00122 447Z" stroke="white"/>
</svg>
